<?xml version="1.0" encoding="UTF-8" standalone="no"?>
<svg
   xmlns:dc="http://purl.org/dc/elements/1.1/"
   xmlns:cc="http://creativecommons.org/ns#"
   xmlns:rdf="http://www.w3.org/1999/02/22-rdf-syntax-ns#"
   xmlns:svg="http://www.w3.org/2000/svg"
   xmlns="http://www.w3.org/2000/svg"
   xmlns:xlink="http://www.w3.org/1999/xlink"
   xmlns:sodipodi="http://sodipodi.sourceforge.net/DTD/sodipodi-0.dtd"
   xmlns:inkscape="http://www.inkscape.org/namespaces/inkscape"
   width="1322"
   height="226"
   viewBox="0 0 349.7792 59.7961"
   version="1.1"
   id="svg46"
   sodipodi:docname="skyline_fullwidth - Kopie.svg"
   inkscape:version="0.92.0 r15299">
  <metadata
     id="metadata50">
    <rdf:RDF>
      <cc:Work
         rdf:about="">
        <dc:format>image/svg+xml</dc:format>
        <dc:type
           rdf:resource="http://purl.org/dc/dcmitype/StillImage" />
      </cc:Work>
    </rdf:RDF>
  </metadata>
  <sodipodi:namedview
     pagecolor="#ffffff"
     bordercolor="#666666"
     borderopacity="1"
     objecttolerance="10"
     gridtolerance="10"
     guidetolerance="10"
     inkscape:pageopacity="0"
     inkscape:pageshadow="2"
     inkscape:window-width="1366"
     inkscape:window-height="705"
     id="namedview48"
     showgrid="false"
     inkscape:zoom="1.0590015"
     inkscape:cx="661"
     inkscape:cy="113"
     inkscape:window-x="-8"
     inkscape:window-y="-8"
     inkscape:window-maximized="1"
     inkscape:current-layer="svg46" />
  <defs
     id="defs23">
    <linearGradient
       id="c">
      <stop
         offset="0"
         stop-color="#d7d7d7"
         id="stop2" />
      <stop
         offset="1"
         stop-color="#e9e9e9"
         stop-opacity=".434"
         id="stop4" />
    </linearGradient>
    <linearGradient
       id="a"
       x1="405.94"
       y1="486.08"
       x2="405.94"
       gradientUnits="userSpaceOnUse">
      <stop
         offset="0"
         stop-color="gray"
         stop-opacity=".25"
         id="stop7" />
      <stop
         offset=".54"
         stop-color="gray"
         stop-opacity=".12"
         id="stop9" />
      <stop
         offset="1"
         stop-color="gray"
         stop-opacity=".1"
         id="stop11" />
    </linearGradient>
    <linearGradient
       id="b"
       x1="405.94"
       y1="486.08"
       x2="405.94"
       gradientUnits="userSpaceOnUse">
      <stop
         offset="0"
         stop-color="gray"
         stop-opacity=".25"
         id="stop14" />
      <stop
         offset=".54"
         stop-color="gray"
         stop-opacity=".12"
         id="stop16" />
      <stop
         offset="1"
         stop-color="gray"
         stop-opacity=".086"
         id="stop18" />
    </linearGradient>
    <linearGradient
       xlink:href="#b"
       id="d"
       x1="332.4"
       y1="1078.5"
       x2="1924"
       y2="1078.5"
       gradientUnits="userSpaceOnUse" />
    <linearGradient
       xlink:href="#c"
       id="e"
       x1="332.4"
       y1="1078.5"
       x2="1991.0278"
       y2="1082.1749"
       gradientUnits="userSpaceOnUse" />
  </defs>
  <path
     inkscape:connector-curvature="0"
     id="path26"
     style="fill:#d8340a;fill-opacity:1;fill-rule:nonzero;stroke:none;stroke-width:0.02230136"
     d="m 137.18774,47.197032 v 0 c 0.15654,-0.149543 0.3085,-0.30148 0.45841,-0.454417 l -7.04813,-6.712808 c -0.14259,0.158881 -0.28998,0.314713 -0.44788,0.464453 -3.29087,3.134678 -8.6274,3.134678 -11.91849,0 -3.29155,-3.134506 -3.29155,-8.216921 0,-11.351426 0.15745,-0.150392 0.32106,-0.290772 0.48742,-0.426582 l -7.04766,-6.712785 c -0.16087,0.142774 -0.32061,0.287508 -0.47737,0.436811 -7.17746,6.836189 -7.17746,17.920348 0,24.756754 7.17815,6.83621 18.81579,6.83621 25.9937,0 m -6.31207,-7.492819 8.36186,5.172106 c 0.25502,-0.345422 0.4952,-0.698005 0.72097,-1.05642 l -8.36095,-5.171259 c -0.2084,0.365425 -0.44949,0.718225 -0.72188,1.055573 m 0.92252,-1.429485 9.30723,3.402816 c 0.17322,-0.388014 0.33112,-0.780209 0.47372,-1.176974 l -9.30609,-3.401771 c -0.12408,0.400682 -0.28336,0.793964 -0.47486,1.175929 m 0.58797,-1.582052 9.84493,1.485201 c 0.0841,-0.413088 0.15288,-0.828134 0.2059,-1.244704 l -9.84608,-1.485201 c -0.0347,0.418093 -0.10192,0.834663 -0.20475,1.244704 m 0.22738,-1.663669 9.9537,-0.496662 c -0.007,-0.420053 -0.0302,-0.839888 -0.0688,-1.258633 l -9.95347,0.497097 c 0.0573,0.417442 0.08,0.837929 0.0686,1.258198 m -0.13643,-1.672809 9.6283,-2.457197 c -0.098,-0.408953 -0.21161,-0.815076 -0.34118,-1.217499 l -9.62784,2.457198 c 0.14808,0.398288 0.26097,0.805499 0.34072,1.217498 m -0.49885,-1.609475 8.88333,-4.311304 c -0.18532,-0.379353 -0.3855,-0.753918 -0.60099,-1.122171 l -8.88448,4.311304 c 0.23355,0.361942 0.43464,0.736507 0.60214,1.122171 m -0.84254,-1.473883 7.7467,-5.974755 c -0.26371,-0.333213 -0.54136,-0.659461 -0.83363,-0.978309 l -7.74692,5.974755 c 0.30918,0.309925 0.58683,0.636826 0.83385,0.978309 m -1.14486,-1.274521 6.273,-7.37834 c -0.33455,-0.278366 -0.6771,-0.543021 -1.02695,-0.794182 l -6.27323,7.378122 c 0.35854,0.235273 0.70177,0.500145 1.02718,0.7944 m -1.39647,-1.023143 4.52691,-8.461771 c -0.38688,-0.20502 -0.78015,-0.395893 -1.17846,-0.572402 l -4.52667,8.460899 c 0.40493,0.159315 0.79843,0.351059 1.17822,0.573274 m -1.58978,-0.724537 2.57995,-9.169329 c -0.42253,-0.123404 -0.84917,-0.231573 -1.27809,-0.324942 l -2.57995,9.1702 c 0.43235,0.07618 0.8599,0.183691 1.27809,0.324071 m -1.71364,-0.388929 0.5217,-9.47969 c -0.43943,-0.03678 -0.88024,-0.05898 -1.32128,-0.06551 l -0.5215,9.480342 c 0.44126,-0.0111 0.88275,0.01023 1.32105,0.06486 m -1.76095,-0.04353 -1.55916,-9.377615 c -0.43761,0.05049 -0.87339,0.115787 -1.30711,0.196315 l 1.55939,9.376526 c 0.43053,-0.09816 0.86768,-0.162144 1.30688,-0.195226 m -1.73306,0.302742 -3.57217,-8.863322 c -0.41635,0.135809 -0.82814,0.286202 -1.23535,0.451393 l 3.57262,8.864411 c 0.40104,-0.182168 0.81397,-0.334083 1.2349,-0.452482 m -1.62749,0.643355 -5.42954,-7.963148 c -0.37637,0.214814 -0.74611,0.443776 -1.10899,0.686883 l 5.43023,7.963802 c 0.35419,-0.259214 0.72462,-0.488828 1.1083,-0.687537" />
  <g
     transform="translate(0 -237.2032)"
     id="g44">
    <path
       transform="matrix(.12614 0 0 .11093 -35.7329 154.6575)"
       fill="url(#d)"
       d="M602.5 1133.5v-101.1h40.8v174.8h22v35.3h61.2v-58.9h15.3v-50.1h30.6v-103.1h10.1v-45.2h32.3V1105h18.7V926.3h10.2v-51.1h23.8v42.7h18.7v167.5h30.5v112h25.5v39.2h52.7V1105h37.3v-49.1h30.6v-70.7h40.8v208.2h44.2v-151.2h67.9v180.7h27.2v25.5h42.4v-188.5h49.3v139.4h25.5v-55h18.7V1107h54.3v141.4h35.7v-56.9h22.1V1109h66.2v141.4h32.3v-127.7h8.5v-64.8l42.5-35.4v218.1h11.8v-127.7h28.9v127.7h42.5v-68.8h27.2v78.6h44.1v-123.8h73.1v104.1h32.2v27.5h23.8v23.6H332.4v-129.6H380v104.1h13.6v-29.5h22v-17.7h18.7v-96.2l35.7 23.6v100.1h40.8V985.2h50.9v82.5h17v65.8z"
       id="path25" />
    <path
       d="M99.9802 290.5697l.0334.2274zM99.5799 291.0514c-.1464-.2452-.1334-.2737-.309-.504-.0092-.0118-.0435-.053-.0516-.079-.023-.0754-.0487-.0173.012-.0633l.009.009c.0055.001.0152-.007.0166-.002l.1672.034.0351-.1446.0634.0562c.1947.1478.0634-.0449.1574.1166.012.001.047.0212.0581.0307-.0111-.009-.0463-.0294-.0578-.0303l-.0003-.0003c-.0071-.0008-.0051.006.0138.024a.0274.0274 0 0 0-.0055-.005zm-.4086.3878c-.1218-.0496-.2013-.1552-.308-.2383-.1157-.09-.1961-.1763-.326-.2408l.0982-.1153.092-.0546c.0237-.047-.0109-.008.0228-.0448.058-.0627-.15-.0467.132-.0352-.0074-.2003-.021-.153.0357-.2166l.139.0265c.1453.3571.209.5085.1143.919m6.0243-3.3018c.0503-.132.125-.209.0997-.3518l-.1909-.0334.1251-.1064-.4503-.1894c.0857-.1078.0372-.0672-.0184-.1395l-.1027-.1683c-.1556-.3426-.0291-.3676-.344-.3797l-.1302-.1773a.1172.1172 0 0 0-.007-.0161c-.0507-.078-.2035-.1394-.28-.176-.007-.004-.0176-.007-.0249-.011l-.0457-.0267c-.2165-.141-.129-.0585-.3508-.0957l-.3244-.0761c-.1125-.0638-.1431-.126-.2725-.1597l-.0826-.1764c.046-.0728.0962-.1518.0228-.2255l-.031-.023a.9846.9846 0 0 0-.031-.0283c-.001.008-.0308-.027 0 0 .0005-.003-.003-.0104-.0134-.0285-.002-.003-.006-.0127-.008-.016-.002-.003-.006-.0124-.008-.0157l-.0463-.0707c-.003-.003-.009-.011-.0117-.0144l-.0265-.0304c-.003-.004-.0104-.0121-.0133-.0163-.0543-.0773-.0555-.1049-.1528-.1568.0787-.2268-.0243-.0863.0702-.2914l-.1702-.0474.0428-.094c-.1244-.061-.299-.1433-.375-.2555-.0724-.1066-.118.0174-.054-.1802-.228-.059-.0513-.009-.2805-.2068l-.05-.0532c-.0312-.0243-.1072-.0512-.1711-.0534l.06-.113-.239-.1442c-.006-.005-.0139-.0117-.0199-.016-.006-.004-.0136-.0115-.0195-.0154-.0705-.047-.1289-.0366-.243-.0168l.0698-.1185-.2187.0155-.0999-.1197.0603-.0542c.01-.009.0323-.0262.041-.0334l-.259-.1082c-.004-.001-.0153-.002-.0196-.003l-.2321-.004c-.0518-.002.007-.005-.0663.002-.148.0156-.1556-.026-.2701-.0126-.0103.001-.076.0208-.077.021-.2987.0464.058-.1204-.304.0194l.0188-.14c-.233.0795-.205.0233-.3634.1983-.0658.0728-.0593.0608-.1935.0496l.0268.1566c-.1097.0208-.1045.0627-.1392.1429-.0612.1408-.1309.0576-.1684.1807l-.0116.149c-.021.1104-.0335.0131-.0573.1177l-.0352.1394c-.0041.008-.0137.037-.0181.0461-.0597.1241-.121.1127-.1723.2623l-.1183-.0397c-.124-.0391-.0106-.0488-.1477-.0866-.0782-.0216-.0166-.0106-.1334.035l-.2524-.1931-.0553.0935-.2185-.0382c-.04.1507.1234.0527-.0322.227.1988.2075.1879.186.006.3494l-.0357.035c-.1102.0994-.1745.0147-.062.1653l-.172.0512.1513.1796c-.107-.0313-.1758-.0555-.2221-.0271l-.0336.0326c-.0026-.006-.01.0135-.0163.019l-.1465-.0824-.4276.1417c-.1163.0408.0218.0955-.186.0209l-.1664.317-.1186-.025-.113.077c-.1388.0702-.1468.2009-.1674.2426l-.0238.0352c-.0024.005-.0094.0133-.0114.0182l-.0603.3262c-.002.004-.0075.0124-.0091.0157l-.0108.0568c-.0006.002-.0022.0101-.003.0123l-.0125.0255c-.0315.077-.0398.2619.0097.336a.3827.3827 0 0 1 .0107.0168c.0079.005.0202.0127.0399.0275l-.0687.096.0758.1587.1357.08-.0709.082.1661.1002c-.0627.0104-.3949.0569-.446.1097-.0436.0451-.058-.1447-.0222.1179l-.1474-.0503-.2819.3636c-.0035.005-.0097.0133-.0129.0184-.003.005-.0085.0128-.0113.0174-.0026.004-.007.013-.0092.0172-.0924.1618-.079.0724-.1463.1164-.007.008-.0205.015-.027.0202l-.0954.0849c-.0026.003-.0061.012-.0082.0155-.0165.0268.063.0156-.0642.0882l.0822.0864a.2772.2772 0 0 1 .0118.0197c.0607.112-.1367.0968.1569.123-.0933.109-.0761.0888-.0654.128.0012.004.0361.0433.0408.0482.003.003.0174.0215.0199.016.0026-.006.015.01.0211.016l-.186.06.0332.088.0009.0103c.031-.0709.012.1493 0 0a.285.285 0 0 0-.013.0375c-.0046.0156-.0362.0457-.0197.1926l-.1417.0647.0343.0855c-.0114.0605.004-.0295-.0258.0387-.0586.1336.1156 0-.074.2035.0967.1006.0593.055.0685.1265a.2012.2012 0 0 1 .002.0397.3628.3628 0 0 1 .0496.0441c.0045.005.014.0115.0186.0162l.031.035c.0042.007.0074.0114.0109.0164-.0142-.0685.0636.0941 0 0a.2358.2358 0 0 0 .0045.0182l-.0869.19c-.1961.0772.0553.008-.106.1497.0773.0504.25.2249.258.3067l.152-.0745.0621.127c.1676-.2218.0665-.1042.2615-.2755.1204.1567.147.1385.1808.2445.0322.1005.0057.0964-.0238.2032-.0013.005-.0043.0142-.0053.0185-.019.0785-.0293.0223-.0019.0785.0008.002.0482.0484.058.0592l-.0663.0608c-.0108.0138-.0104.2186.0206.3017.0464.1244-.0167.003.0979.0582l-.0264.1617c.106.0504.121.0917.1297.0994l.0361.0245c.223.1835.0412.0639.2719.1408.0069.002.027.014.0342.0169l.0354.0153a.1198.1198 0 0 0 .0184.003l.1834-.0255c.0287-.009.008-.0156.0478-.0167.0462-.001.0063-.0126.09.0508l.0804-.128.217.0545.0463-.2317.148.1298.167-.1143c.1256.0496-.023.0473.1186.0702l.125-.1154.1463.0782c.1327-.174.0976-.0957.162-.1166.0436-.1.0596-.1657.1218-.2366.0723-.0823.0765-.102.1832-.1462l.0731-.011c.0067.001.0592.0263.0593.0263l-.0157-.1174.2218-.0358c.1518-.0254.0506-.0624.1638-.002.1158.1723.1393.139.2933.2743.5413.4759.3.313.3816.57.0565.1775.0452.2571.0826.4302-.1566.213-.0485 1.3355-.0314 1.6627l1.1081.01-.4994-1.1315c-.0594-.5627-.032-.986.0637-1.5188.158-.2432-.0441-.2194.3053-.421.0936-.042.067-.001.0913.1067l.2314.052.1054-.0984.0618.0505c.0403.0316.0192.0168.0532.0378.3302-.249-.0294.0855.2577-.1516.0704.1122.0687.0842.0677.144-.002.1224-.0271-.0373-.01.072.003.0158.003.0253.004.0309.003.0006.008.007.0197.0305.2588.5065-.0857-.0722.0775.4938l.1523.031-.0888.1048.1598.058c-.0689.144-.0435.0987-.0176.136l.1832-.1242c.1665.1464.001.0178.1316.074.063.027.0363-.088.0935.1193l.2022.0416.0774-.1363.1428.0813c.004.002.0143.006.0184.008l.1543.0592c.078.0214.0753.0251.1501.0483l.146-.1524c.006-.005.0144-.0112.0203-.0157.006-.005.0152-.0119.0208-.0162l.038-.2888c.206.0336.3365.052.5744-.0152l.0402-.1655c.1055-.0234.0663-.0248.1796.008-.0254-.0952-.0345-.0902-.0114-.1312.5704-.1464.0666-.0396.4372-.2265l.2457-.217c.0415-.0619.0303-.0614-.0132-.1339l.1562-.0437-.1048-.445c.006-.0528.0505-.0317.0407-.1379.0275-.1827-.015-.013.0624-.0827.0631-.0567.0122.005.0717-.0412.0291-.0226.0854.0701.0141-.1067l.1983.0467-.0772-.1247.1394.0577.009-.0375a.174.174 0 0 0 .01-.0252c-.0975.064.0228-.075 0 0 .004-.003.008-.005.0133-.009.1244-.0877.0323.0996.2676-.2916.004-.007.008-.0154.0121-.0221l.0952-.1765.0828-.2046c.0196-.0725-.0659-.2994-.117-.4255-.002-.005-.006-.0135-.008-.0185-.0252-.07-.0248-.0837-.0144-.1666.135-.1083.1599-.3357.1778-.3832"
       fill="#ccc"
       id="path28" />
    <path
       fill="#fff"
       d="M74.101 291.3005v-3.9752l1.155-1.211v-6.0555h6.6172v9.9166h4.8373v-4.8443h1.6849v-7.7224h5.4623v13.6638h1.6849v-9.0332h9.6745v1.9805h6.0873V271.681h2.9486v-2.2084h4.6199v12.5667h6.5221v11.2416h7.7722v-7.7081h2.1062v-5.742h1.8887v-4.1889h5.0546v10.3726h3.1524v8.1498h2.935v-23.3667h6.7395v9.7029h2.0926v14.1055h2.7311v-22.7113h7.5684v11.7974h1.2909v4.3028h3.3426v5.9557h5.2585v-24.478h5.2449v8.8195h1.9023v12.5667h2.5137v-9.0332h2.5273V271.681h3.791v13.0084h3.3562v7.0528h3.3698v-6.839h5.0411v13.0083H.0881v-12.5667h6.3183v8.6058h3.7775v-5.0723h9.8783v4.8443h9.2533v-7.2664h5.4623v5.172h2.31v-2.5362H38.99v-11.2416h6.3048v6.611h5.8835v8.6058h3.9948v-3.9752h3.5736v1.9805h1.2637v2.4364h7.1472v-18.964h5.2585v16.7556zM88.9448 259.3908c-.0286-.1647-.038-.3293-.038-.494 0-1.3676.8367-2.482 1.8637-2.482.1236 0 .2472.0127.3708.0506.3043-1.3424 1.2361-2.3048 2.3392-2.3048.152 0 .3042.0253.4469.0507.2947-1.5197 1.3407-2.6468 2.5768-2.6468 1.046 0 1.9493.7978 2.3867 1.9756a.9845.9845 0 0 1 .2758-.038c.5895 0 1.084.5698 1.1886 1.3043.0666-.0127.1331-.0127.1997-.0127.9889 0 1.8542.7219 2.3106 1.7983.1807-.0886.3804-.1393.58-.1393.9129 0 1.6546.9878 1.6546 2.2035 0 .266-.038.5192-.1046.7598H88.9448zM148.4621 263.7951c.0177-.1085.0236-.2171.0236-.3257 0-.9021-.519-1.6372-1.1562-1.6372-.0767 0-.1534.008-.23.0334-.1888-.8854-.767-1.5203-1.4513-1.5203-.0944 0-.1887.0167-.2772.0334-.1829-1.0023-.8318-1.7457-1.5987-1.7457-.6489 0-1.2093.5262-1.4807 1.303a.5766.5766 0 0 0-.171-.025c-.3658 0-.6725.3758-.7374.8603-.0413-.008-.0826-.008-.1239-.008-.6135 0-1.1503.4761-1.4335 1.1861-.112-.0585-.236-.0919-.3598-.0919-.5664 0-1.0265.6516-1.0265 1.4534 0 .1755.0236.3425.065.5012h9.9576z"
       id="path30" />
    <path
       transform="matrix(.12281 0 0 .10182 141.6352 164.6999)"
       fill="url(#e)"
       d="M772.4 1133.5v-103.1h10.1v-45.2h32.3V1105h18.7V926.3h10.2v-51.1h23.8v42.7h18.7v167.5h30.5v112h25.5v39.2h52.7V1105h37.3v-49.1h30.6v-70.7h40.8v208.2h44.2v-151.2h67.9v180.7h27.2v25.5h42.4v-188.5h49.3v139.4h25.5v-55h18.7V1107h54.3v141.4h35.7v-56.9h22.1V1109h66.2v141.4h32.3v-127.7h8.5v-64.8l42.5-35.4v218.1h11.8v-127.7h28.9v127.7h42.5v-68.8h27.2v78.6h44.1v-123.8h73.1v104.1h32.2v27.5h23.8v23.6H332.4v-129.6H380v104.1h13.6v-29.5h22v-17.7h18.7v-96.2l35.7 23.6v100.1h40.8V985.2h50.9v82.5h17v65.8h23.8v-101.1h40.8v174.8h22v35.3h61.2v-58.9h15.3v-50.1z"
       id="path32" />
    <path
       fill="#fff"
       d="M213.7756 277.8505h6.3048v6.611h5.8835v8.6059h3.9948v-3.9752h3.5736v1.9805h1.2637v2.4364h7.1472V274.545h5.2585v16.7556h1.6849v-3.9752l1.155-1.211v-6.0554h6.6172v9.9166h4.8373v-4.8444h1.6849v-7.7224h5.4623v13.6639h1.6849v-9.0333h9.6745v1.9805h6.0873v-12.3387h2.9486v-2.2085h4.6199v12.5667h6.5221v11.2417h7.7722v-7.7082h2.1062v-5.7419h1.8887v-4.189h5.0546v10.3726h3.1524v8.1499h2.935v-23.3667h6.7395v9.7029h2.0926v14.1055h2.7311v-22.7113h7.5684v11.7973h1.2909v4.3029h3.3426v5.9556h5.2585v-24.478h5.2449v8.8195h1.9023v12.5667h2.5137v-9.0332h2.5274v-10.1445h3.791v13.0084h3.3561v7.0527h3.3698v-6.839h5.0411v13.0084H174.8737V285.345h6.3183v8.6057h3.7775v-5.0722h9.8783v4.8443h9.2533v-7.2665h5.4623v5.172h2.31v-2.5361h1.9022z"
       id="path34" />
    <path
       d="M197.8827 291.4746l-.0246.1719zm.295.364c.1079-.1853.0983-.2068.2278-.3809.007-.009.032-.04.038-.0598.017-.0569.0359-.013-.009-.0478l-.007.007c-.004.001-.0112-.005-.0123-.001l-.1232.0257-.026-.1093-.0466.0425c-.1435.1117-.0467-.0339-.116.0881-.009.001-.0347.0161-.0428.0232.008-.007.0341-.0222.0427-.0229l.0002-.0002c.005-.0006.004.005-.0102.0182l.004-.004zm.301.2932c.0899-.0375.1485-.1173.2272-.1801.0852-.068.1444-.1333.24-.182l-.0722-.0872-.0678-.0412c-.0174-.0355.008-.006-.0168-.0339-.0427-.0473.1105-.0353-.0972-.0266.005-.1513.0154-.1156-.0264-.1636l-.1024.02c-.1071.2699-.154.3842-.0843.6946m-4.4397-2.4956c-.037-.0997-.092-.158-.0735-.266l.1407-.0253-.0922-.0804.3319-.1431c-.0631-.0815-.0274-.0508.0136-.1055l.0757-.1272c.1146-.259.0215-.2778.2535-.287l.096-.134c.001-.002.004-.01.005-.0122.0372-.059.1499-.1053.2062-.133.005-.003.013-.005.0184-.008l.0337-.0202c.1596-.1066.0951-.0442.2586-.0723l.239-.0575c.083-.0482.1055-.0952.2009-.1207l.0609-.1333c-.034-.055-.071-.1148-.0168-.1705l.0229-.0173a.8662.8662 0 0 1 .0228-.0215c.0005.006.0227-.0203 0 0-.0004-.002.002-.008.01-.0216.001-.003.004-.01.006-.0121.001-.003.005-.009.006-.012l.034-.0533a.1162.1162 0 0 0 .009-.011l.0195-.023c.002-.003.008-.009.01-.0122.04-.0584.041-.0792.1127-.1185-.058-.1714.0178-.0652-.0518-.2202l.1254-.036-.0315-.071c.0917-.0461.2205-.1083.2765-.193.0533-.0807.0869.0131.0398-.1363.168-.0445.0377-.007.2066-.1563l.037-.0402c.0228-.0184.079-.0387.126-.0404l-.0442-.0854.1762-.109a.1388.1388 0 0 1 .0145-.0122c.004-.003.0101-.009.0144-.0115.052-.0356.095-.0277.1792-.0127l-.0515-.0896.1612.0117.0737-.0905-.0444-.041c-.007-.006-.0238-.0198-.0302-.0252l.191-.0818c.003-.0008.0111-.002.0143-.003l.1711-.003c.0382-.001-.005-.004.0488.002.109.0118.1146-.0196.199-.01.008.0009.056.0157.0568.016.2201.035-.0428-.091.224.0145l-.0138-.1058c.1717.06.151.0177.2678.15.0485.055.0437.046.1426.0374l-.0198.1184c.0808.0157.077.0474.1026.108.045.1064.0964.0435.1241.1366l.009.1126c.0154.0834.0247.01.0422.0889l.026.1054c.003.006.0101.028.0134.0348.044.0938.0892.0851.127.1982l.0872-.03c.0914-.0295.008-.0369.1088-.0655.0576-.0163.0122-.008.0983.0265l.186-.146.0408.0707.161-.029c.0295.114-.0909.0399.0237.1716-.1465.1569-.1384.1407-.004.2641l.0263.0264c.0812.0751.1286.0111.0457.125l.1267.0387-.1115.1357c.079-.0237.1296-.042.1637-.0205l.0247.0246c.002-.004.007.0102.012.0144l.108-.0623.3151.1071c.0857.0308-.016.0722.1371.0158l.1226.2396.0874-.0188.0833.0582c.1023.053.1082.1518.1233.1834l.0176.0266c.002.004.007.01.008.0137l.0444.2465c.001.003.005.009.007.012l.008.043c.0005.002.002.008.002.009l.009.0192c.0232.0582.0294.1979-.007.254-.004.005-.006.009-.008.0127-.006.003-.0149.01-.0294.0208l.0506.0726-.0558.1199-.1.0605.0522.0619-.1224.0757c.0463.008.291.043.3287.0829.032.034.0428-.1094.0163.089l.1086-.038.2077.2749c.002.004.007.01.01.0139.002.003.006.01.008.0132.002.003.005.01.007.013.0681.1223.0582.0547.108.088.005.006.015.0114.0198.0152l.0703.0642c.002.003.005.009.006.0117.0121.0203-.0464.0118.0473.0667l-.0606.0653a.1054.1054 0 0 0-.009.0149c-.0447.0847.1008.073-.1156.093.0688.0824.0561.067.0482.0967-.0006.003-.0266.0328-.03.0365-.002.003-.0129.0162-.0148.012-.002-.004-.011.008-.0156.0122l.1371.0453-.0244.0666-.0006.008c-.0228-.0536-.009.1128 0 0 .003.006.006.015.01.0284.004.0118.0267.0345.0145.1455l.1044.049-.0253.0645c.008.0457-.003-.0223.019.0292.0431.101-.0852 0 .0545.1538-.0712.0761-.0437.0417-.0505.0957a.1057.1057 0 0 0-.001.03.2429.2429 0 0 0-.0366.0333c-.004.004-.0104.009-.0137.0123l-.0228.0265c-.003.005-.005.009-.008.0124.0104-.0518-.0469.0712 0 0-.0006.004-.002.008-.004.0138l.064.1436c.1445.0584-.0407.006.0781.1131-.0569.0381-.1842.17-.19.2318l-.1121-.0563-.0457.0961c-.1235-.1677-.049-.0788-.1927-.2083-.0888.1185-.1084.1047-.1333.1848-.0237.076-.004.073.0176.1536.001.003.003.0107.004.014.014.0593.0216.0168.001.0593-.0006.001-.0356.0366-.0426.0448l.0488.046c.008.0104.008.1653-.0152.2281-.0342.094.0123.002-.0721.044l.0194.1222c-.0781.038-.0892.0693-.0956.075l-.0266.0186c-.1643.1387-.0303.0483-.2004.1064-.005.002-.0199.0107-.0252.0128l-.0262.0115c-.003.0007-.0106.002-.0135.003l-.1351-.0193c-.0212-.007-.006-.0118-.0353-.0126-.0341-.001-.005-.01-.0663.0384l-.0592-.0967-.16.0412-.034-.1751-.1091.098-.123-.0863c-.0927.0375.0168.0357-.0876.053l-.092-.0872-.1078.059c-.0978-.1315-.072-.0723-.1195-.088-.032-.0756-.0439-.1252-.0897-.1788-.0533-.0622-.0564-.0771-.135-.1106l-.0538-.008c-.005.0008-.0436.02-.0437.02l.0115-.0888-.1634-.027c-.1119-.0193-.0373-.0472-.1207-.002-.0854.1301-.1027.105-.2161.2073-.399.3596-.2212.2365-.2813.4307-.0416.1342-.0333.1944-.061.3252.1155.161.0358 1.0094.0232 1.2567l-.8167.007.3681-.8552c.0437-.4253.0235-.7453-.047-1.148-.1165-.1837.0325-.1658-.225-.318-.069-.0319-.0494-.0009-.0673.0805l-.1705.0393-.0777-.0744-.0454.0381c-.0298.024-.0143.0127-.0393.0286-.2433-.1882.0217.0646-.1899-.1146-.0518.085-.0506.0636-.0499.1089.001.0925.02-.0282.007.0545-.002.0119-.002.019-.003.0233-.002.0004-.006.005-.0146.023-.1907.383.0631-.0545-.0572.3733l-.1122.0234.0654.0792-.1178.0439c.0508.1087.0321.0745.013.1028l-.135-.0939c-.1227.1107-.0005.0135-.097.056-.0464.0203-.0267-.0665-.0689.0901l-.149.0315-.057-.103-.1052.0615c-.003.001-.0105.005-.0135.006l-.1138.0448c-.0574.0162-.0554.019-.1106.0365l-.1076-.1152c-.004-.004-.0105-.008-.015-.0119-.004-.004-.0111-.009-.0152-.0122l-.0281-.2182c-.1518.0254-.248.0393-.4233-.0115l-.0296-.1251c-.0778-.0177-.0489-.0188-.1323.006.0187-.072.0253-.0682.008-.0992-.4204-.1106-.049-.03-.3222-.1712l-.181-.164c-.0307-.0468-.0224-.0464.01-.1012l-.1152-.033.0772-.3363c-.004-.04-.0373-.024-.03-.1043-.0202-.138.0111-.01-.046-.0625-.0465-.0429-.009.004-.0528-.031-.0215-.0172-.0629.053-.0104-.0808l-.1462.0353.057-.0943-.1028.0436-.007-.0284c-.004-.008-.005-.0139-.007-.019.0718.0484-.0168-.0566 0 0-.003-.002-.006-.004-.01-.007-.0917-.0663-.0238.0753-.1973-.2205-.003-.005-.006-.0116-.009-.0167l-.07-.1334-.0612-.1546c-.0144-.0548.0486-.2263.0862-.3216.001-.004.005-.0102.006-.014.0186-.0529.0183-.0633.0106-.126-.0994-.0818-.1178-.2537-.131-.2895"
       fill="#fff"
       id="path36" />
    <path
       d="M149.577 290.9932l-.3376.1507c-.0512-.1063-.0421-.1076-.1408-.1923-.0473-.1237-.0501-.0164-.0853-.1895-.088-.4323.0942.009-.2447-.6605v-.001c-.018-.006-.0001-.026 0 0 .0133.004.046.001.1204-.0337.003-.002.0137-.006.0168-.008.3075-.136.1616.1059.3038-.1184l.053.1781.1246-.0559.0263.1913.1189-.0753.046.2041.1408-.0759.061.1729c.003.008.008.0168.0123.025l.0842.1867c-.1464.2256-.1878.1606-.2999.3018m-1.8726-.8612l.0151-.1316c.2527.1948.1475-.1076.1969.1916.1643-.0714.1188-.0676.203-.0587.004.0004.0143.002.0183.002.073.008.001-.0393.149.0384l.0523.041.0432.2654c-.3076-.046-.5146-.297-.6778-.3487m7.3716-1.919l.1107-.0573-.0227-.2874c-.01-.0594.0181-.0157-.0246-.1024l-.0302-.0435c-.0298-.0424-.0436-.0546-.0495-.0559.001.0241-.01-.002 0 0a.1604.1604 0 0 0-.003-.023c-.002-.0123-.007-.1273-.052-.174-.024-.0249-.0914-.0469-.1187-.0932-.001-.002.0185.0113-.0174-.0406-.0606-.0878-.0117.0251-.0532-.0584l-.1894-.0386c-.0108-.0554-.009-.141-.0537-.1785l-.2374-.077c-.002-.0003-.012-.001-.0141-.002a.1279.1279 0 0 1-.013-.004c-.002-.0006-.0104-.005-.0127-.006l-.2442-.0418a.7645.7645 0 0 0-.0314.0003l-.3101.0164.0488-.2188c.001-.005.005-.0159.005-.0213l-.007-.1108c-.0006-.005-.003-.0156-.003-.0199l-.0548-.1124c-.0286-.0347.0187-.0502-.0657-.1113-.06-.0434-.0772-.1174-.1485-.1955-.0825-.0903-.396-.3736-.4322-.4556l-.1518.0627-.0296-.177-.1248.055-.0603-.1067c-.002-.012-.007-.0157-.0123-.0228l-.0993.084-.0423-.1362c-.2006.0704-.0908.065-.2428-.025l-.1325.1307-.0958-.1333-.1178.103-.227-.0466c-.313.0245-.149.006-.4008-.1203l-.3536-.0838c-.0532-.006-.1002-.034-.136-.0731-.0745-.0815-.058-.247-.0302-.3465l.0328-.07c-.002-.0553.0689.0125-.0663-.082.0492-.0625.099-.1083.0816-.1815l-.0161-.1662c.01-.099.0261-.0164-.01-.161-.1491-.048-.141-.0538-.1775-.1073-.0494-.0727-.0409-.0506-.121-.0964-.0812-.0464-.0763-.089-.1907.007-.0312-.0991-.0449-.1276-.129-.1666-.2013-.093-.0871-.1263-.2754-.0603-.0458-.0875-.0745-.1335-.1575-.1868a.5752.5752 0 0 1-.0237-.0144c-.145-.0962-.104-.059-.1644-.2177l-.072-.1562c-.004-.007-.009-.0168-.0136-.0237-.004-.007-.009-.0164-.0137-.023a.5595.5595 0 0 0-.2271-.201c-.0917.0374-.1182.0577-.1814.038-.0647-.0198-.2076.003-.2865.0274-.003.0008-.012.005-.015.006l-.304.1094c-.005.002-.0145.008-.019.0107-.1477.0737-.2588.157-.3784.2754l.104.1052c-.1374.0535-.2789.1437-.4226.0842-.1272-.0525-.0003-.0185-.0747-.0407a.1069.1069 0 0 0-.0254-.004l-.3313.0947c-.0921.0375-.113.0625-.1852.126l-.2626.2289c-.037.0316-.0182.01-.0564.0477-.004.004-.0113.0125-.0152.0163a.4369.4369 0 0 1-.0132.0166c-.003.004-.009.0129-.0125.0164-.003.003-.01.0122-.013.0155-.044.045-.0796.0426-.0864.1048-.006.0518-.1064.0233-.1542.0447l-.0923.0922c-.003-.007-.0163.01-.0238.0155l.0621.1501c-.0512.0181-.0848.014-.1432-.002.008.1175.0213.1466-.0222.198-.002.003-.017.019-.0187.0133-.002-.006-.0148.008-.0208.013l.125.093c-.2265.0284-.1981.009-.3219.132l-.3245.2225.0658.1c-.0994-.001-.1819-.0241-.2497.055-.124.1443-.1087.0857-.1859.1615-.047.0465-.052.056-.0443.053.0715-.0533.0144-.006 0 0-.008.006-.0174.0128-.0289.0215l-.5396.4655.0716.1318c-.4746.2081-.1835.1288-.4856.172l-.0306.0107c-.0844.0188-.0113-.0196-.1703-.0129-.1377.006-.085.0524-.233-.003l-.0696.1798-.1546-.123-.0288.114c-.073-.0157-.1299-.0344-.1854.002-.038.025-.2218-.019-.1488.1955l-.12.132-.1671-.026c.015.0313.0577.088.0488.1217-.0004.002-.006.0102-.007.0124-.0621.1288.007.0237-.1079.1095l-.0135.1744c-.002.1129-.0757.0234.0595.1527-.2043.2041-.1955.1366-.0242.2706l-.1628.094c-.151.4555-.0229.1646-.1761.3823.1232.1782.1289.2513-.0377.3346l.1876.0984-.1062.138.1355.0945-.1403.1577c.2887.24-.0336-.0006.2296.3151.0326.0392.0194.0312.054.0641.0446.0424.0338.025.0678.0507.1557.1186.0449.0722.1637.2095.211.2438.145.0987.2386.202.0185.0205.0465.1098.061.1433l.1362-.059.03.0447c.005.007.023.0322.0278.0397.007.0116.0136.0213.019.0297-.0135-.0326.0702.1083 0 0 .002.004.004.01.009.0196.0479.095.0199.1012.17.1343l.268.0218-.061-.1718.1868.095.0856-.1797c.1644.0636.0905.0589.217-.0374.2073-.1577.401.002.4969.0532l.0256.0129.2052.1105c.166-.226.0768-.1155.1844-.1598.0493-.0204.1748-.1873.4423-.139l-.0158-.2147.1856.0317.008-.1666.1359.0344c.225.04.0486.0438.184.0712l.1315.3076c.003.002.013.007.0163.009l.0344.0155.0181.009.0601.042a.3911.3911 0 0 0 .0221.017c.1648.1137.1627.0724.2562.021l.0589.1743.1036-.1756.1137.1402.1082-.1012.1357.0983c.2453.3333.5445.3768.8456.653.1616.1482.4641.6975.4952.9873.063.5914-.1429 1.2832-.3582 1.832-.0804.2052-.1722.31-.2514.4985l.2024-.002.6991-.0003.311-1.2388c.2354-1.1892.1216-.4757-.007-1.3854l.3006-.3187c.0925-.0191.006.0306.1271-.0516.0485-.0327.0624-.0453.097-.0942.0492-.0695.0735-.158.0928-.2403.2565-.076.441-.061.5254-.1114.0835-.0498.0215.004.1544-.02l-.008-.1499c.1938-.003.1068.014.166-.0501l.0564-.0524c.004-.004.0123-.0113.0161-.0153l.0671-.0787c.0388-.045.0696-.0784.1072-.1098.0692.0508.1643.1453.253.1501.0985.005.083-.0209.112-.0769.3202.152.1601.0694.2852.0665.06-.001.0516.0344.1789.0396.1363.006.1782-.0469.2314-.1056l.117.1096.1129-.1202.1256.0956.0526-.1153c.3007.1399.2506.0817.2971-.0473.2581.1488.2164.0302.2223.0273.1568-.077-.0188.0148.1489-.0263.0898-.022.0302-.0544.137-.0694.1076-.0153-.0136.0439.105-.0131l.0296-.03c.01-.006.0124-.009.0134-.0115.004.003.018.007.057.009.1824.0127.1251-.0408.1919-.084.0001-.0002.411-.1902.2544-.4082.0956-.0237.0731-.0396.1886-.218l.123-.1714-.0005-.0747c.1206.007.2116-.0364.3043-.121.0633-.0576.1272-.0922.0472-.1891l.1773.0227c-.015-.1104-.0628-.0944.0374-.1238.004-.001.0236.005.0268-.004.003-.01.0527.0228.0888-.2143.0162-.1066.1823-.1265.0154-.2288"
       fill="#efefef"
       id="path38" />
    <path
       d="M220.8702 266.2441c-.0237-.14-.0315-.28-.0315-.4199 0-1.1628.6931-2.1103 1.5438-2.1103.1024 0 .2048.0108.3072.043.252-1.1412 1.024-1.9595 1.9376-1.9595.126 0 .252.0215.3702.043.2442-1.292 1.1106-2.2503 2.1346-2.2503.8664 0 1.6147.6784 1.977 1.6797a.7963.7963 0 0 1 .2284-.0323c.4884 0 .898.4845.9846 1.109.055-.0108.1102-.0108.1654-.0108.8192 0 1.536.6137 1.914 1.529.1497-.0755.315-.1185.4805-.1185.7561 0 1.3705.8398 1.3705 1.8735 0 .226-.0315.4414-.0866.646h-13.2957z"
       opacity=".627"
       fill="#fff"
       id="path40" />
    <path
       d="M238.2485 291.473l-.1818.0846c-.0276-.0597-.0227-.0605-.0758-.108-.0255-.0696-.027-.009-.046-.1065-.0474-.243.0507.005-.1318-.3712v-.0006c-.01-.003-.0001-.0146 0 0 .007.002.0248.0006.0648-.0189.002-.001.007-.003.009-.004.1656-.0764.087.0595.1636-.0665l.0286.1001.0671-.0314.0142.1075.0641-.0423.0248.1147.076-.0426.0328.0971c.002.004.004.009.007.0141l.0454.1049c-.0789.1268-.1012.0902-.1616.1696m-1.0088-.484l.008-.0739c.1361.1095.0795-.0605.106.1077.0885-.0401.064-.038.1094-.033.002.0002.008.001.01.001.0393.005.0006-.0221.0802.0216l.0282.023.0233.1491c-.1657-.0257-.2772-.1668-.3651-.1959m3.9715-1.0784l.0596-.0322-.0122-.1615c-.005-.0334.01-.009-.0133-.0575l-.0163-.0245c-.0161-.0238-.0235-.0307-.0267-.0314.0005.0135-.005-.001 0 0a.0607.0607 0 0 0-.002-.0129c-.001-.007-.004-.0716-.028-.0978-.013-.014-.0492-.0264-.064-.0524-.0006-.001.01.006-.009-.0228-.0326-.0493-.006.0141-.0287-.0328l-.102-.0217c-.006-.031-.005-.0793-.029-.1003l-.1279-.0433c-.001-.0002-.006-.0005-.008-.001-.001-.0002-.006-.002-.007-.002-.001-.0003-.006-.003-.007-.003l-.1315-.0235c-.006 0-.0114 0-.0169.0002l-.1671.009.0263-.123c.0005-.003.003-.009.003-.012l-.004-.0623c-.0003-.003-.002-.009-.002-.0112l-.0295-.0632c-.0154-.0195.0101-.0282-.0354-.0625-.0323-.0244-.0416-.066-.08-.1098-.0445-.0507-.2134-.21-.2329-.256l-.0818.0352-.016-.0994-.0673.0308-.0325-.06c-.001-.007-.004-.009-.007-.0128l-.0535.0473-.0228-.0765c-.108.0396-.0489.0365-.1308-.014l-.0714.0734-.0516-.0749-.0634.058-.1222-.0262c-.1687.0138-.0803.003-.216-.0676l-.1905-.0472c-.0287-.003-.054-.019-.0733-.041-.0401-.0458-.0312-.1388-.0163-.1948l.0177-.0393c-.001-.031.037.007-.0357-.046.0265-.0352.0533-.0609.044-.102l-.009-.0934c.005-.0556.014-.009-.005-.0904-.0804-.027-.076-.0302-.0956-.0603-.0266-.041-.022-.0284-.0652-.0542-.0437-.0261-.0411-.05-.1027.004-.0168-.0557-.0242-.0717-.0695-.0936-.1084-.0523-.047-.071-.1484-.034-.0247-.0491-.04-.075-.0849-.1049-.004-.002-.009-.006-.0128-.008-.078-.0541-.056-.0331-.0886-.1223l-.0388-.0878c-.002-.004-.005-.009-.007-.0133-.002-.004-.005-.009-.007-.013a.3063.3063 0 0 0-.1223-.1129c-.0494.021-.0637.0324-.0977.0214-.035-.0112-.1119.002-.1544.0153-.002.0005-.006.003-.008.003l-.1638.0615c-.003.001-.008.005-.0102.006-.0796.0414-.1394.0883-.2038.1548l.056.0592c-.074.03-.1502.0807-.2277.0473-.0685-.0295-.0001-.0104-.0402-.023a.0648.0648 0 0 0-.0137-.002l-.1785.0533c-.0496.021-.0609.035-.0998.0708l-.1415.1285c-.0199.0178-.01.006-.0304.0268-.002.002-.006.007-.008.009-.002.002-.005.007-.007.009-.002.002-.005.007-.007.009-.002.002-.005.007-.007.009-.0237.0254-.0429.024-.0465.059-.003.029-.0573.013-.083.025l-.0497.0518c-.002-.004-.009.006-.0128.009l.0334.0844c-.0276.0102-.0457.008-.0772-.001.004.066.0115.0824-.012.1113-.001.002-.009.0107-.01.007-.001-.003-.008.004-.0113.007l.0674.0523c-.122.016-.1067.005-.1734.0742l-.1748.125.0355.0562c-.0536-.0006-.098-.0136-.1346.0308-.0668.081-.0585.0482-.1.0908-.0255.026-.0282.0314-.024.0297.0385-.03.008-.003 0 0l-.0156.012-.2907.2617.0386.074c-.2557.117-.099.0725-.2616.0968l-.0165.006c-.0455.0106-.006-.011-.0917-.007-.0742.003-.0458.0294-.1256-.002l-.0374.101-.0833-.0692-.0155.0641c-.0393-.009-.07-.0193-.1.001-.0204.014-.1194-.0107-.0801.1099l-.0646.0742-.0901-.0147c.008.0177.031.0495.0263.0684a.0317.0317 0 0 1-.004.007c-.0335.0724.004.0133-.0581.0615l-.007.098c-.001.0635-.0408.013.032.0859-.11.1146-.1053.0767-.013.152l-.0876.0528c-.0814.256-.0123.0925-.095.2148.0665.1002.0696.1412-.0202.188l.101.0554-.0572.0775.073.053-.0756.0888c.1556.1348-.018-.0004.1238.177.0176.022.0105.0175.029.036.024.0238.0183.014.0366.0285.0839.0666.0242.0406.0882.1178.1136.137.078.0555.1285.1135.01.0115.0251.0616.0328.0805l.0734-.0331.0162.0251a.543.543 0 0 1 .015.0223c.004.007.007.012.0102.0167-.007-.0183.0378.0608 0 0 .001.002.002.006.005.011.0258.0534.0107.0568.0916.0755l.1444.0122-.033-.0966.1007.0534.0461-.101c.0886.0357.0488.0331.117-.021.1116-.0886.216.001.2676.03l.0138.007.1106.062c.0895-.127.0414-.0649.0994-.0898.0266-.0115.0941-.1052.2383-.078l-.009-.1208.1.0178.004-.0936.0732.0193c.1212.0225.0262.0246.0992.04l.0708.1729.009.005.0185.009.01.005.0324.0235a.139.139 0 0 0 .0119.01c.0888.0639.0876.0407.138.0118l.0317.098.0558-.0987.0613.0788.0583-.0568.0731.0552c.1322.1873.2934.2117.4555.3669.0871.0833.2501.392.2668.5549.034.3323-.077.721-.193 1.0294-.0433.1153-.0928.1742-.1354.2802l.109-.001.3767-.0002.1675-.6962c.1269-.6682.0655-.2673-.004-.7785l.162-.179c.0498-.0108.003.0171.0685-.029.0261-.0185.0336-.0255.0522-.053.0266-.039.0396-.0888.05-.135.1382-.0428.2376-.0343.283-.0626.045-.028.0117.002.0833-.0112l-.004-.0843c.1044-.002.0575.008.0894-.0282l.0304-.0294c.002-.002.007-.006.009-.009l.036-.0442a.5004.5004 0 0 1 .0578-.0617c.0373.0285.0885.0816.1363.0843.053.003.0448-.0118.0604-.0432.1724.0854.0862.039.1536.0374.0323-.0005.0278.0193.0964.0223.0734.003.096-.0264.1247-.0593l.063.0616.0609-.0675.0677.0537.0283-.0648c.162.0786.135.046.16-.0266.1391.0836.1166.017.1198.0153.0845-.0432-.01.008.0802-.0148.0484-.0124.0163-.0306.0738-.039.058-.009-.007.0247.0566-.007l.016-.0169c.005-.003.007-.005.007-.006.002.002.01.004.0307.005.0983.007.0674-.0229.1034-.0472 0 0 .2215-.1069.137-.2293.0516-.0133.0395-.0222.1017-.1225l.0663-.0964-.0003-.042c.065.004.114-.0205.164-.068.034-.0324.0685-.0518.0253-.1063l.0956.0128c-.008-.062-.0338-.053.0202-.0696.002-.0006.0127.003.0144-.002.002-.006.0284.0128.0478-.1204.009-.0599.0982-.0711.008-.1286"
       fill="#efefef"
       id="path42" />
  </g>
</svg>
