<?xml version="1.0" standalone="no"?>
<!DOCTYPE svg PUBLIC "-//W3C//DTD SVG 20010904//EN"
 "http://www.w3.org/TR/2001/REC-SVG-20010904/DTD/svg10.dtd">
<svg version="1.0" xmlns="http://www.w3.org/2000/svg"
 width="704.000000pt" height="704.000000pt" viewBox="0 0 704.000000 704.000000"
 preserveAspectRatio="xMidYMid meet">
<metadata>
Created by potrace 1.11, written by Peter Selinger 2001-2013
</metadata>
<g transform="translate(0.000000,704.000000) scale(0.100000,-0.100000)"
fill="#000000" stroke="none">
<path d="M3579 6993 c0 -26 -2 -66 -4 -88 -1 -22 -6 -98 -10 -170 -10 -209
-14 -274 -20 -380 -12 -220 -16 -294 -20 -385 -11 -251 -15 -330 -20 -395 -6
-87 -17 -311 -19 -385 l-1 -55 50 -2 c28 0 85 -3 128 -6 l77 -5 2 61 c0 34 2
73 3 87 1 14 5 90 9 170 4 80 9 168 11 195 2 28 6 109 9 180 4 72 9 164 11
205 3 41 7 127 10 190 3 63 8 149 10 190 5 87 13 228 20 385 3 61 8 140 10
178 4 58 2 67 -13 68 -9 0 -68 3 -129 5 l-113 6 -1 -49z"/>
<path d="M3040 7009 c-25 -4 -65 -10 -90 -14 -25 -4 -52 -9 -60 -10 -8 -2 -21
-4 -29 -4 -13 -1 -13 -13 4 -112 4 -28 14 -90 21 -139 3 -19 9 -57 14 -85 5
-27 12 -67 15 -87 7 -53 16 -109 20 -135 2 -12 9 -57 15 -100 7 -43 14 -87 16
-98 2 -11 15 -92 29 -180 14 -88 27 -171 29 -185 7 -39 17 -101 22 -140 2 -19
6 -42 9 -50 2 -8 7 -37 10 -65 3 -27 8 -61 11 -75 2 -14 6 -34 8 -45 2 -11 9
-56 16 -100 6 -44 13 -91 16 -105 2 -14 9 -59 15 -100 6 -41 14 -78 18 -82 3
-4 24 -3 46 2 22 5 63 11 90 15 28 3 59 7 70 9 11 3 26 5 33 5 13 1 13 15 -3
101 -2 8 -13 76 -24 150 -12 74 -31 189 -41 255 -11 66 -22 138 -25 160 -4 22
-8 47 -10 55 -2 8 -7 38 -11 65 -3 28 -7 57 -9 65 -2 13 -9 56 -20 130 -12 78
-37 229 -41 250 -2 14 -7 43 -9 65 -3 22 -10 65 -15 95 -5 30 -12 71 -15 90
-3 19 -7 46 -10 60 -2 14 -7 43 -10 65 -3 22 -8 54 -11 70 -7 36 -8 41 -18
122 -11 82 -19 91 -76 82z"/>
<path d="M4310 6945 c0 -4 -43 -167 -96 -363 -53 -197 -97 -364 -99 -372 -2
-8 -38 -141 -80 -295 -42 -154 -78 -287 -80 -295 -4 -18 -41 -156 -96 -360
-42 -154 -43 -161 -31 -158 9 2 90 -16 173 -41 l66 -19 112 417 c62 229 114
426 117 438 2 12 9 34 14 48 5 14 7 25 5 25 -2 0 0 12 6 28 6 15 24 79 41 142
16 63 36 138 43 165 8 28 36 133 64 235 27 102 59 220 71 264 11 43 19 80 18
82 -5 5 -173 52 -212 59 -20 4 -36 4 -36 0z"/>
<path d="M2310 6826 c-125 -45 -165 -63 -163 -72 4 -18 192 -511 320 -839 39
-99 206 -533 233 -605 37 -100 124 -325 126 -328 1 -2 42 12 91 31 48 19 102
39 118 45 17 5 29 13 28 18 -1 8 -434 1139 -528 1379 -23 61 -67 174 -96 252
-30 79 -56 143 -59 143 -3 0 -34 -11 -70 -24z"/>
<path d="M4948 6591 c-35 -69 -131 -256 -212 -416 -82 -159 -214 -418 -294
-575 -80 -157 -180 -353 -223 -436 l-77 -152 41 -18 c23 -10 72 -36 109 -56
37 -21 71 -38 75 -38 4 0 13 10 19 23 9 20 82 162 416 817 58 113 180 352 272
532 l167 327 -33 17 c-18 10 -70 36 -114 59 l-82 42 -64 -126z"/>
<path d="M1606 6476 c-54 -36 -100 -67 -103 -70 -5 -5 9 -26 149 -241 46 -71
143 -220 215 -330 310 -478 369 -569 478 -735 48 -74 112 -172 141 -218 l54
-82 97 65 c53 36 101 65 106 65 20 0 28 -13 -338 550 -63 96 -119 182 -125
190 -8 12 -215 331 -508 782 -31 49 -59 88 -62 88 -3 0 -50 -29 -104 -64z"/>
<path d="M5635 6325 c-15 -21 -167 -208 -184 -227 -9 -9 -20 -23 -26 -30 -27
-34 -171 -214 -175 -218 -5 -4 -103 -125 -147 -180 -6 -8 -27 -33 -45 -56 -18
-22 -49 -60 -68 -84 -19 -23 -151 -185 -293 -359 l-257 -316 37 -30 c20 -16
65 -53 99 -82 l63 -52 34 42 c86 104 142 173 262 322 71 88 137 169 146 180
10 11 81 99 159 195 78 96 154 191 170 210 16 19 90 112 166 205 76 94 166
205 201 248 35 43 61 82 58 87 -3 5 -40 37 -83 71 -42 34 -84 68 -92 75 -13
11 -17 11 -25 -1z"/>
<path d="M1031 6008 c-345 -344 -609 -745 -791 -1203 -92 -232 -174 -546 -206
-790 -3 -22 -7 -51 -10 -65 -26 -166 -26 -722 1 -861 3 -13 7 -46 11 -73 18
-164 90 -459 155 -644 60 -170 102 -269 183 -432 220 -441 518 -812 921 -1149
250 -208 604 -416 930 -544 117 -46 338 -120 395 -132 8 -1 33 -8 55 -13 132
-35 368 -74 535 -90 162 -15 611 -7 745 13 17 3 48 7 70 10 100 14 230 39 345
66 123 30 384 112 454 143 92 41 104 46 109 46 12 0 213 100 316 158 290 161
548 359 787 602 l74 74 -677 673 c-372 370 -678 672 -679 670 -2 -1 -47 -45
-101 -97 -54 -53 -130 -118 -168 -145 -39 -27 -72 -52 -75 -55 -26 -28 -288
-152 -385 -183 -72 -23 -132 -38 -152 -39 -5 0 -18 -4 -29 -8 -12 -5 -52 -12
-90 -15 -38 -4 -78 -9 -89 -12 -26 -5 -249 -4 -295 2 -19 2 -55 7 -80 10 -25
3 -52 8 -60 10 -8 2 -26 6 -40 9 -106 18 -269 75 -391 136 -479 241 -811 712
-877 1245 -19 156 -5 410 32 570 64 277 213 541 425 757 l96 98 -675 675 -676
676 -93 -93z"/>
<path d="M5994 5682 c-100 -81 -290 -235 -423 -342 -134 -107 -248 -200 -254
-205 -7 -6 -142 -116 -302 -244 -159 -129 -296 -240 -304 -247 -12 -11 -6 -22
36 -71 27 -32 62 -75 77 -95 16 -21 32 -38 35 -38 6 0 593 469 686 548 11 9
76 62 145 117 69 55 130 105 136 110 6 6 112 91 235 190 122 99 236 192 253
206 l30 26 -34 44 c-60 77 -121 149 -128 149 -4 0 -88 -67 -188 -148z"/>
<path d="M6384 5119 c-121 -61 -340 -173 -489 -249 -439 -224 -948 -483 -971
-494 -20 -10 -19 -13 35 -121 31 -60 57 -112 58 -114 2 -2 103 47 225 109 123
62 349 177 503 254 154 78 282 143 285 146 3 3 152 79 332 170 180 91 335 171
345 178 17 12 14 20 -37 122 -30 60 -58 109 -61 110 -4 0 -105 -50 -225 -111z"/>
<path d="M6848 4545 c-3 -3 -79 -25 -169 -49 -90 -24 -177 -47 -194 -51 -16
-5 -35 -9 -41 -11 -6 -1 -38 -10 -70 -19 -33 -9 -66 -18 -74 -20 -17 -3 -411
-109 -485 -130 -27 -7 -113 -30 -190 -51 -77 -20 -196 -52 -265 -71 -69 -18
-134 -35 -145 -37 -66 -12 -166 -49 -162 -59 3 -7 18 -60 33 -119 31 -116 31
-116 94 -97 19 5 42 12 50 14 8 1 35 8 60 15 25 7 52 14 60 15 8 2 92 24 185
50 94 26 177 48 185 51 8 2 33 8 55 14 22 6 47 12 55 14 8 2 119 32 245 66
127 34 365 98 530 142 165 44 310 83 323 86 31 6 34 14 22 64 -6 24 -13 51
-15 62 -23 97 -36 126 -59 126 -12 0 -25 -2 -28 -5z"/>
<path d="M6857 3824 c-1 -1 -67 -5 -147 -9 -80 -4 -176 -9 -215 -11 -38 -2
-115 -6 -170 -9 -55 -2 -140 -7 -190 -10 -49 -3 -133 -7 -185 -10 -52 -3 -144
-8 -205 -11 -116 -6 -140 -7 -385 -19 -85 -4 -166 -8 -180 -10 -14 -1 -31 -3
-38 -4 -10 -1 -11 -27 -6 -118 6 -126 9 -147 22 -139 5 3 71 8 148 11 76 3
159 8 184 10 25 2 104 7 175 10 72 3 162 8 200 10 39 2 126 6 195 9 69 4 154
8 190 11 58 4 218 12 380 20 262 13 359 18 380 20 l25 2 3 127 3 127 -92 -3
c-50 -2 -91 -4 -92 -4z"/>
<path d="M5135 3376 c-2 -11 -7 -41 -10 -66 -3 -25 -10 -71 -16 -103 -7 -32
-10 -59 -8 -62 5 -4 28 -8 104 -20 22 -3 78 -12 125 -20 47 -7 102 -16 123
-19 20 -3 54 -9 75 -12 20 -3 75 -12 122 -19 47 -8 103 -17 125 -20 22 -4 122
-19 222 -36 101 -16 200 -31 220 -34 21 -2 49 -7 62 -9 12 -3 42 -8 65 -10 22
-3 52 -8 66 -11 14 -3 97 -16 185 -30 88 -14 211 -33 273 -43 62 -10 114 -16
116 -13 9 15 39 187 40 231 1 15 -29 24 -119 35 -27 4 -52 8 -55 10 -3 2 -34
6 -70 10 -36 4 -68 9 -71 11 -4 2 -22 6 -40 8 -37 5 -229 35 -269 42 -14 2
-56 9 -95 14 -38 6 -108 17 -155 25 -85 14 -134 21 -200 31 -19 2 -44 7 -56 9
-12 3 -39 7 -60 10 -21 3 -64 10 -94 15 -53 9 -75 12 -165 25 -22 3 -51 8 -65
11 -55 10 -67 12 -110 18 -25 3 -56 8 -70 10 -14 3 -41 7 -60 10 -19 3 -56 9
-83 14 -44 9 -48 8 -52 -12z"/>
<path d="M5052 2992 c-13 -37 -34 -89 -46 -115 -27 -55 -30 -52 78 -91 61 -23
507 -194 936 -359 549 -212 744 -285 750 -282 4 2 15 26 25 52 10 26 23 62 30
78 24 56 35 99 28 105 -5 4 -30 15 -58 25 -27 10 -113 42 -190 72 -77 30 -165
64 -195 75 -30 11 -64 24 -75 29 -27 12 -410 158 -460 176 -22 7 -49 18 -60
23 -11 5 -81 32 -155 60 -74 28 -144 54 -155 59 -34 16 -418 161 -424 161 -4
0 -17 -30 -29 -68z"/>
<path d="M4926 2718 c-11 -18 -41 -66 -68 -106 -27 -41 -48 -75 -46 -77 3 -3
373 -245 618 -403 47 -30 155 -100 240 -155 85 -56 200 -130 255 -166 55 -35
140 -91 188 -123 49 -32 93 -58 97 -58 5 0 10 -4 12 -8 3 -8 181 -122 191
-122 3 0 36 48 73 106 54 85 65 108 53 115 -44 26 -346 221 -634 409 -66 43
-227 147 -358 232 -132 84 -245 159 -252 166 -8 6 -16 12 -18 12 -6 0 -137 85
-154 99 -7 6 -15 11 -18 11 -3 0 -39 23 -80 50 -41 28 -76 50 -77 50 -2 0 -12
-15 -22 -32z"/>
</g>
</svg>
